<svg width="48" height="48" viewBox="0 0 48 48" fill="none" xmlns="http://www.w3.org/2000/svg">
<path fill-rule="evenodd" clip-rule="evenodd" d="M34.8538 13.8536C35.0491 13.6583 35.0491 13.3417 34.8538 13.1464C34.6585 12.9512 34.342 12.9512 34.1467 13.1464L24.0001 23.293L13.8536 13.1464C13.6583 12.9512 13.3417 12.9512 13.1464 13.1464C12.9512 13.3417 12.9512 13.6583 13.1464 13.8536L23.293 24.0001L13.1464 34.1467C12.9512 34.342 12.9512 34.6585 13.1464 34.8538C13.3417 35.0491 13.6583 35.0491 13.8536 34.8538L24.0001 24.7072L34.1467 34.8538C34.342 35.0491 34.6585 35.0491 34.8538 34.8538C35.0491 34.6585 35.0491 34.342 34.8538 34.1467L24.7072 24.0001L34.8538 13.8536Z" fill="white"/>
</svg>
