<svg width="130" height="40" viewBox="0 0 130 40" fill="none" xmlns="http://www.w3.org/2000/svg">
<path fill-rule="evenodd" clip-rule="evenodd" d="M130 39.3643H122.276V30.3581H114.99V39.3643H107.231V15.4489H114.99V24.219H122.276V15.4489H130V39.3643ZM30.6617 10.4229C29.987 11.0976 29.987 12.2107 30.6617 12.8853C31.3363 13.5599 32.4494 13.5599 33.124 12.8853C33.7986 12.2107 33.7986 11.0976 33.124 10.4229C32.4494 9.74831 31.3363 9.74831 30.6617 10.4229ZM36.9019 11.8396C36.9019 11.8396 35.89 19.3954 32.9216 24.1853C32.8132 24.35 32.6874 24.5143 32.5454 24.6759C29.5456 28.9863 24.4023 29.5485 22.1951 29.5485L25.7369 39.398H23.5444L19.699 28.6715C19.6653 28.5029 19.699 28.4017 19.8002 28.368C21.3091 27.7775 21.6697 27.5698 22.7121 26.9694L22.8023 26.9175H22.8207C25.9917 24.8562 27.6972 21.4439 28.4017 19.7665C28.4354 19.6653 28.4354 19.5641 28.3342 19.4966C28.3289 19.4949 28.3237 19.4932 28.3185 19.4916C28.1213 19.8531 27.9233 20.2146 27.6933 20.576C24.9273 24.7587 20.7109 27.7271 13.8635 27.7271H4.38504C4.14893 27.7271 4.14893 27.4909 4.25012 27.3897L6.74623 24.8599C3.27192 24.8599 1.24804 22.8023 0.505958 20.5086C0.438495 20.3737 0.371033 20.1038 0.640883 20.1038H11.2662C12.3793 20.1038 13.1552 19.7665 13.796 19.1931L22.2626 12.1433C19.0918 14.8755 14.7743 19.0919 10.8614 24.4889C10.8315 24.5288 10.8222 24.5746 10.8275 24.6193C10.8311 24.5879 10.8418 24.5552 10.8614 24.5226C14.7743 19.1256 19.0919 14.9092 22.2626 12.177C25.0285 9.78204 26.9175 8.50026 26.9175 8.50026C28.233 7.65698 29.6834 7.21847 31.3363 7.21847C34.1178 7.21847 36.0003 8.88319 36.5539 9.93024L36.5646 9.91699H40.0389C40.275 9.91699 40.3425 10.2206 40.1401 10.3218L36.9019 11.8059L35.7551 11.3C35.659 11.276 35.6142 11.1836 35.6451 11.0837C35.5838 11.1958 35.6483 11.307 35.7551 11.3337L36.9019 11.8396ZM35.3166 23.1733C33.6975 26.5464 32.1458 28.233 28.5703 29.9533L31.9097 39.3643H41.287C39.3643 33.5963 37.273 28.1655 35.3166 23.1733ZM9.47846 39.3643H0C1.15237 35.7097 2.30473 32.5049 3.36299 29.5619L3.44058 29.3461H12.6829L9.47846 39.3643ZM11.0301 18.4172C11.7047 18.4172 12.3119 18.316 12.8179 17.8775L17.6077 13.931C18.5859 11.1988 19.6653 8.39907 20.7447 6.07161C21.3181 7.31967 21.8241 8.56772 22.3638 9.91697C24.9948 7.75817 26.6139 6.47639 28.7727 5.86923C27.4235 2.93461 26.479 0.910742 26.0405 0H15.4152C14.5044 1.88895 11.1313 8.90503 7.18474 18.4172H11.0301ZM71.9149 39.3643L71.4089 36.7333C69.7224 38.521 67.631 39.8703 63.8531 39.8365C60.6487 39.8365 58.4562 38.7571 57.2756 36.5983C55.5215 38.4536 53.329 39.8365 49.5511 39.8365C44.3228 39.8365 41.8267 37.0031 41.8267 31.2351V15.4489H49.5511V30.2231C49.5511 32.4494 50.6642 33.6975 52.6544 33.6975C53.9362 33.6975 55.4878 32.8542 56.1287 32.0446V15.4489H63.8531V30.2231C63.8531 32.4494 65.0337 33.6975 67.1925 33.6975C68.3731 33.6975 69.7898 32.8542 70.4307 32.0446V15.4489H78.1889V39.3643H71.9149ZM92.2211 33.6975C94.11 33.6975 95.2569 32.8542 95.9652 32.0446V21.4868C94.9196 21.2507 94.1775 21.1495 92.727 21.1495C90.2309 21.1495 88.9829 23.4432 88.9829 28.0306C88.9829 31.741 90.1297 33.6975 92.2211 33.6975ZM89.8599 39.8703H89.6238C83.8895 39.8365 80.9211 36.3285 80.9211 28.3342C80.9211 19.699 85.1375 14.9766 92.862 14.9766C98.2927 14.9766 101.194 15.6513 103.723 16.4608V39.3643H97.4157L97.0109 36.7333C95.6954 38.6559 93.3005 39.8365 89.8599 39.8703ZM26.7826 30.5942C26.1754 30.7629 25.467 30.8978 24.725 30.999L27.727 39.3643H29.9196L26.7826 30.5942ZM31.9772 10.423C31.6736 10.7266 31.6736 11.2663 31.9772 11.5699C32.2808 11.8734 32.8205 11.8734 33.1241 11.5699C33.4276 11.2663 33.4276 10.7266 33.1241 10.423C32.8205 10.1194 32.2808 10.1194 31.9772 10.423Z" fill="white"/>
</svg>
