<svg width="130" height="40" viewBox="0 0 130 40" fill="none" xmlns="http://www.w3.org/2000/svg">
<path fill-rule="evenodd" clip-rule="evenodd" d="M130 39.4312H122.276V30.425H114.99V39.4312H107.231V15.5158H114.99V24.2859H122.276V15.5158H130V39.4312ZM30.6617 10.4898C29.987 11.1645 29.987 12.2776 30.6617 12.9522C31.3363 13.6268 32.4494 13.6268 33.124 12.9522C33.7986 12.2776 33.7986 11.1645 33.124 10.4898C32.4494 9.81521 31.3363 9.81521 30.6617 10.4898ZM36.9019 11.9065C36.9019 11.9065 35.89 19.4623 32.9216 24.2522C32.8132 24.4169 32.6874 24.5811 32.5454 24.7428C29.5456 29.0532 24.4023 29.6154 22.1951 29.6154L25.7369 39.4649H23.5444L19.699 28.7384C19.6653 28.5698 19.699 28.4686 19.8002 28.4348C21.3091 27.8444 21.6697 27.6367 22.7121 27.0363L22.8023 26.9844H22.8207C25.9917 24.9231 27.6972 21.5108 28.4017 19.8334C28.4354 19.7322 28.4354 19.631 28.3342 19.5635C28.3289 19.5618 28.3237 19.5601 28.3185 19.5585C28.1213 19.92 27.9233 20.2815 27.6933 20.6429C24.9273 24.8256 20.7109 27.794 13.8635 27.794H4.38504C4.14893 27.794 4.14893 27.5578 4.25012 27.4566L6.74623 24.9268C3.27192 24.9268 1.24804 22.8692 0.505958 20.5755C0.438495 20.4406 0.371033 20.1707 0.640883 20.1707H11.2662C12.3793 20.1707 13.1552 19.8334 13.796 19.26L22.2626 12.2101C19.0918 14.9424 14.7743 19.1588 10.8614 24.5558C10.8315 24.5957 10.8222 24.6415 10.8275 24.6862C10.8311 24.6548 10.8418 24.6221 10.8614 24.5895C14.7743 19.1925 19.0919 14.9761 22.2626 12.2439C25.0285 9.84894 26.9175 8.56715 26.9175 8.56715C28.233 7.72387 29.6834 7.28537 31.3363 7.28537C34.1178 7.28537 36.0003 8.95008 36.5539 9.99713L36.5646 9.98389H40.0389C40.275 9.98389 40.3425 10.2875 40.1401 10.3887L36.9019 11.8728L35.7551 11.3669C35.659 11.3429 35.6142 11.2505 35.6451 11.1506C35.5838 11.2627 35.6483 11.3739 35.7551 11.4006L36.9019 11.9065ZM35.3166 23.2402C33.6975 26.6133 32.1458 28.2999 28.5703 30.0202L31.9097 39.4312H41.287C39.3643 33.6632 37.273 28.2324 35.3166 23.2402ZM9.47846 39.4312H0C1.15237 35.7765 2.30473 32.5718 3.36299 29.6288L3.44058 29.413H12.6829L9.47846 39.4312ZM11.0301 18.4841C11.7047 18.4841 12.3119 18.3829 12.8179 17.9444L17.6077 13.9979C18.5859 11.2656 19.6653 8.46596 20.7447 6.13851C21.3181 7.38656 21.8241 8.63462 22.3638 9.98386C24.9948 7.82507 26.6139 6.54328 28.7727 5.93612C27.4235 3.00151 26.479 0.977637 26.0405 0.0668945H15.4152C14.5044 1.95584 11.1313 8.97193 7.18474 18.4841H11.0301ZM71.9149 39.4312L71.4089 36.8002C69.7224 38.5879 67.631 39.9372 63.8531 39.9034C60.6487 39.9034 58.4562 38.824 57.2756 36.6652C55.5215 38.5205 53.329 39.9034 49.5511 39.9034C44.3228 39.9034 41.8267 37.07 41.8267 31.302V15.5158H49.5511V30.29C49.5511 32.5163 50.6642 33.7644 52.6544 33.7644C53.9362 33.7644 55.4878 32.9211 56.1287 32.1115V15.5158H63.8531V30.29C63.8531 32.5163 65.0337 33.7644 67.1925 33.7644C68.3731 33.7644 69.7898 32.9211 70.4307 32.1115V15.5158H78.1889V39.4312H71.9149ZM92.2211 33.7644C94.11 33.7644 95.2569 32.9211 95.9652 32.1115V21.5537C94.9196 21.3175 94.1775 21.2164 92.727 21.2164C90.2309 21.2164 88.9829 23.5101 88.9829 28.0975C88.9829 31.8079 90.1297 33.7644 92.2211 33.7644ZM89.8599 39.9372H89.6238C83.8895 39.9034 80.9211 36.3954 80.9211 28.4011C80.9211 19.7659 85.1375 15.0435 92.862 15.0435C98.2927 15.0435 101.194 15.7182 103.723 16.5277V39.4312H97.4157L97.0109 36.8002C95.6954 38.7228 93.3005 39.9034 89.8599 39.9372ZM26.7826 30.6611C26.1754 30.8298 25.467 30.9647 24.725 31.0659L27.727 39.4312H29.9196L26.7826 30.6611ZM31.9772 10.4899C31.6736 10.7935 31.6736 11.3332 31.9772 11.6368C32.2808 11.9403 32.8205 11.9403 33.1241 11.6368C33.4276 11.3332 33.4276 10.7935 33.1241 10.4899C32.8205 10.1863 32.2808 10.1863 31.9772 10.4899Z" fill="white"/>
<path fill-rule="evenodd" clip-rule="evenodd" d="M31.9767 10.4899C31.6731 10.7935 31.6731 11.3332 31.9767 11.6368C32.2803 11.9403 32.82 11.9403 33.1236 11.6368C33.4271 11.3332 33.4271 10.7935 33.1236 10.4899C32.82 10.1863 32.2803 10.1863 31.9767 10.4899Z" fill="white"/>
<path fill-rule="evenodd" clip-rule="evenodd" d="M40.0386 9.98389H36.5643L35.721 11.0296C35.5861 11.1645 35.6198 11.3331 35.7547 11.3669L36.9016 11.8728L40.1398 10.3887C40.3422 10.2875 40.2747 9.98389 40.0386 9.98389ZM27.0858 26.9844H22.802C21.6888 27.6253 21.3515 27.8277 19.7999 28.4348C19.6987 28.4686 19.665 28.5698 19.6987 28.7384L23.5441 39.4649H25.7366L22.1948 29.6154C24.4885 29.6154 29.953 29.0083 32.8876 24.2184C32.0106 25.6352 29.8855 26.9844 27.0858 26.9844ZM33.1237 11.6367C32.8201 11.9403 32.2804 11.9403 31.9769 11.6367C31.6733 11.3331 31.6733 10.7934 31.9769 10.4899C32.2804 10.1863 32.8201 10.1863 33.1237 10.4899C32.4491 9.81523 31.336 9.81523 30.6613 10.4899C29.9867 11.1645 29.9867 12.2776 30.6613 12.9522C31.336 13.6269 32.4491 13.6269 33.1237 12.9522C33.7983 12.2776 33.7983 11.1645 33.1237 10.4899C33.4273 10.8272 33.4273 11.3331 33.1237 11.6367ZM24.7246 31.0659C25.4667 30.9647 26.1751 30.8298 26.7822 30.6611L29.9192 39.4312H27.7267L24.7246 31.0659ZM27.693 20.6429C24.927 24.8256 20.7106 27.794 13.8632 27.794H4.38474C4.14862 27.794 4.14862 27.5578 4.24981 27.4566L6.74592 24.9268C3.27161 24.9268 1.24774 22.8692 0.505653 20.5755C0.43819 20.4406 0.370728 20.1707 0.640577 20.1707H11.2659C12.379 20.1707 13.1549 19.8334 13.7957 19.26L22.2623 12.2101C19.0915 14.9424 14.7739 19.1588 10.8611 24.5558C10.7599 24.6907 10.8949 24.8931 11.0298 24.8931H16.0557C19.3614 24.8931 23.6452 24.2859 28.064 19.5973C28.1652 19.4961 28.2327 19.4961 28.3339 19.5298C28.1315 19.9009 27.9291 20.2719 27.693 20.6429Z" fill="#00985F"/>
<path fill-rule="evenodd" clip-rule="evenodd" d="M122.276 39.4312H130V15.5158H122.276V24.2859H114.99V15.5158H107.231V39.4312H114.99V30.425H122.276V39.4312ZM30.6617 12.9522C29.987 12.2776 29.987 11.1645 30.6617 10.4898C31.3363 9.81521 32.4494 9.81521 33.124 10.4898C33.7986 11.1645 33.7986 12.2776 33.124 12.9522C32.4494 13.6268 31.3363 13.6268 30.6617 12.9522ZM32.9216 24.2522C35.89 19.4623 36.9019 11.9065 36.9019 11.9065L35.7551 11.4006C35.6201 11.3668 35.5527 11.1982 35.7213 11.0633L36.5646 10.0176C36.0249 8.97193 34.136 7.28537 31.3363 7.28537C29.6834 7.28537 28.233 7.72387 26.9175 8.56715C26.9175 8.56715 25.0285 9.84894 22.2626 12.2439C19.0919 14.9761 14.7743 19.1925 10.8614 24.5895C10.7603 24.7581 10.8952 24.9268 11.0301 24.9268H16.056C19.3617 24.9268 23.6456 24.3196 28.0643 19.631C28.1655 19.5298 28.233 19.5298 28.3342 19.5635C28.4354 19.631 28.4354 19.7322 28.4017 19.8334C27.6933 21.5199 25.973 24.9605 22.7686 27.0181H27.0524C29.8858 26.9844 32.0109 25.6351 32.9216 24.2522ZM28.5703 30.0202C32.1458 28.2999 33.6975 26.6133 35.3166 23.2402C37.273 28.2324 39.3643 33.6632 41.287 39.4312H31.9097L28.5703 30.0202ZM0 39.4312H9.47846L12.6829 29.413H3.44058C2.36118 32.4151 1.18059 35.687 0 39.4312ZM12.8179 17.9444C12.3119 18.3829 11.7047 18.4841 11.0301 18.4841H7.18474C11.1313 8.97193 14.5044 1.95584 15.4152 0.0668945H26.0405C26.479 0.977637 27.4235 3.00151 28.7727 5.93612C26.6139 6.54328 24.9948 7.82507 22.3638 9.98386C21.8241 8.63462 21.3181 7.38656 20.7447 6.13851C19.6653 8.46596 18.5859 11.2656 17.6077 13.9979L12.8179 17.9444ZM71.4089 36.8002L71.9149 39.4312H78.1889V15.5158H70.4307V32.1115C69.7898 32.9211 68.3731 33.7644 67.1925 33.7644C65.0337 33.7644 63.8531 32.5163 63.8531 30.29V15.5158H56.1287V32.1115C55.4878 32.9211 53.9362 33.7644 52.6544 33.7644C50.6642 33.7644 49.5511 32.5163 49.5511 30.29V15.5158H41.8267V31.302C41.8267 37.07 44.3228 39.9034 49.5511 39.9034C53.329 39.9034 55.5215 38.5205 57.2756 36.6652C58.4562 38.824 60.6487 39.9034 63.8531 39.9034C67.631 39.9372 69.7224 38.5879 71.4089 36.8002ZM95.9652 32.1115C95.2569 32.9211 94.11 33.7644 92.2211 33.7644C90.1297 33.7644 88.9829 31.8079 88.9829 28.0975C88.9829 23.5101 90.2309 21.2164 92.727 21.2164C94.1775 21.2164 94.9196 21.3175 95.9652 21.5537V32.1115ZM89.6238 39.9372H89.8599C93.3005 39.9034 95.6954 38.7228 97.0109 36.8002L97.4157 39.4312H103.723V16.5277C101.194 15.7182 98.2927 15.0435 92.862 15.0435C85.1375 15.0435 80.9211 19.7659 80.9211 28.4011C80.9211 36.3954 83.8895 39.9034 89.6238 39.9372Z" fill="#E0001A"/>
</svg>
