<svg width="24" height="24" viewBox="0 0 24 24" fill="none" xmlns="http://www.w3.org/2000/svg">
<path fill-rule="evenodd" clip-rule="evenodd" d="M1.00879 6.00903C1.00879 5.45675 1.4565 5.00903 2.00879 5.00903L21.9908 5.00903C22.5431 5.00903 22.9908 5.45675 22.9908 6.00903C22.9908 6.56132 22.5431 7.00903 21.9908 7.00903L2.00879 7.00903C1.4565 7.00903 1.00879 6.56132 1.00879 6.00903ZM1.00879 12.0629C1.00879 11.5106 1.4565 11.0629 2.00879 11.0629H21.9908C22.5431 11.0629 22.9908 11.5106 22.9908 12.0629C22.9908 12.6152 22.5431 13.0629 21.9908 13.0629H2.00879C1.4565 13.0629 1.00879 12.6152 1.00879 12.0629ZM2.00879 17.1167C1.4565 17.1167 1.00879 17.5644 1.00879 18.1167C1.00879 18.669 1.4565 19.1167 2.00879 19.1167H21.9908C22.5431 19.1167 22.9908 18.669 22.9908 18.1167C22.9908 17.5644 22.5431 17.1167 21.9908 17.1167H2.00879Z" fill="white"/>
</svg>
